{
  "accessors": [
    {
      "bufferView": 2,
      "componentType": 5126,
      "count": 58854,
      "max": [
        88.555091857910156,
        116.82866668701172,
        143.41984558105469
      ],
      "min": [
        -101.82965850830078,
        -95.63616943359375,
        -82.55950927734375
      ],
      "type": "VEC3"
    },
    {
      "bufferView": 2,
      "byteOffset": 706248,
      "componentType": 5126,
      "count": 58854,
      "max": [
        0.99999821186065674,
        0.99999707937240601,
        0.99998128414154053
      ],
      "min": [
        -0.99995064735412598,
        -0.99999618530273438,
        -1
      ],
      "type": "VEC3"
    },
    {
      "bufferView": 3,
      "componentType": 5126,
      "count": 58854,
      "max": [
        1,
        0.9999997615814209,
        0.99999439716339111,
        1
      ],
      "min": [
        -0.9999995231628418,
        -0.99999964237213135,
        -0.99999475479125977,
        -1
      ],
      "type": "VEC4"
    },
    {
      "bufferView": 1,
      "componentType": 5126,
      "count": 58854,
      "max": [
        0.9961010217666626,
        0.99709498882293701
      ],
      "min": [
        0.0020000000949949026,
        0.0020000000949949026
      ],
      "type": "VEC2"
    },
    {
      "bufferView": 0,
      "componentType": 5125,
      "count": 223839,
      "max": [
        58853
      ],
      "min": [
        0
      ],
      "type": "SCALAR"
    },
    {
      "bufferView": 2,
      "byteOffset": 1412496,
      "componentType": 5126,
      "count": 65532,
      "max": [
        88.460098266601562,
        109.08110046386719,
        130.23194885253906
      ],
      "min": [
        -102.79944610595703,
        -88.042266845703125,
        -82.920600891113281
      ],
      "type": "VEC3"
    },
    {
      "bufferView": 2,
      "byteOffset": 2198880,
      "componentType": 5126,
      "count": 65532,
      "max": [
        1,
        1,
        1
      ],
      "min": [
        -1,
        -1,
        -1
      ],
      "type": "VEC3"
    },
    {
      "bufferView": 3,
      "byteOffset": 941664,
      "componentType": 5126,
      "count": 65532,
      "max": [
        1,
        1,
        0.85269683599472046,
        1
      ],
      "min": [
        -1,
        -1,
        -0.85543727874755859,
        1
      ],
      "type": "VEC4"
    },
    {
      "bufferView": 0,
      "byteOffset": 895356,
      "componentType": 5125,
      "count": 210228,
      "max": [
        65531
      ],
      "min": [
        0
      ],
      "type": "SCALAR"
    },
    {
      "bufferView": 2,
      "byteOffset": 2985264,
      "componentType": 5126,
      "count": 11983,
      "max": [
        -23.996746063232422,
        105.40742492675781,
        125.42124938964844
      ],
      "min": [
        -56.999740600585938,
        -84.370002746582031,
        9.0639801025390625
      ],
      "type": "VEC3"
    },
    {
      "bufferView": 2,
      "byteOffset": 3129060,
      "componentType": 5126,
      "count": 11983,
      "max": [
        1,
        1,
        1
      ],
      "min": [
        -1,
        -1,
        -1
      ],
      "type": "VEC3"
    },
    {
      "bufferView": 3,
      "byteOffset": 1990176,
      "componentType": 5126,
      "count": 11983,
      "max": [
        1,
        1,
        0.85270178318023682,
        1
      ],
      "min": [
        -1,
        -1,
        -0.85270476341247559,
        1
      ],
      "type": "VEC4"
    },
    {
      "bufferView": 0,
      "byteOffset": 1736268,
      "componentType": 5125,
      "count": 38196,
      "max": [
        11982
      ],
      "min": [
        0
      ],
      "type": "SCALAR"
    },
    {
      "bufferView": 2,
      "byteOffset": 3272856,
      "componentType": 5126,
      "count": 867,
      "max": [
        33.265937805175781,
        86.219100952148438,
        2.4979860782623291
      ],
      "min": [
        30.217842102050781,
        -65.033065795898438,
        -0.5373079776763916
      ],
      "type": "VEC3"
    },
    {
      "bufferView": 2,
      "byteOffset": 3283260,
      "componentType": 5126,
      "count": 867,
      "max": [
        0.98464071750640869,
        0.99775266647338867,
        0.97617411613464355
      ],
      "min": [
        -0.99643182754516602,
        -0.99776190519332886,
        -0.9887891411781311
      ],
      "type": "VEC3"
    },
    {
      "bufferView": 3,
      "byteOffset": 2181904,
      "componentType": 5126,
      "count": 867,
      "max": [
        0.99968081712722778,
        0.98544782400131226,
        0.9999995231628418,
        1
      ],
      "min": [
        -0.99941539764404297,
        -0.9975208044052124,
        -0.99997991323471069,
        1
      ],
      "type": "VEC4"
    },
    {
      "bufferView": 0,
      "byteOffset": 1889052,
      "componentType": 5125,
      "count": 3786,
      "max": [
        866
      ],
      "min": [
        0
      ],
      "type": "SCALAR"
    },
    {
      "bufferView": 2,
      "byteOffset": 3293664,
      "componentType": 5126,
      "count": 9857,
      "max": [
        89.96221923828125,
        100.87770843505859,
        -81.27679443359375
      ],
      "min": [
        -82.072113037109375,
        -80.633697509765625,
        -143.81831359863281
      ],
      "type": "VEC3"
    },
    {
      "bufferView": 2,
      "byteOffset": 3411948,
      "componentType": 5126,
      "count": 9857,
      "max": [
        1,
        1,
        1
      ],
      "min": [
        -1,
        -1,
        -1
      ],
      "type": "VEC3"
    },
    {
      "bufferView": 3,
      "byteOffset": 2195776,
      "componentType": 5126,
      "count": 9857,
      "max": [
        1,
        1,
        1,
        1
      ],
      "min": [
        -1,
        -1,
        -1,
        -1
      ],
      "type": "VEC4"
    },
    {
      "bufferView": 1,
      "byteOffset": 470832,
      "componentType": 5126,
      "count": 9857,
      "max": [
        0.99251097440719604,
        0.99366801977157593
      ],
      "min": [
        0.0010000000474974513,
        0.0010000000474974513
      ],
      "type": "VEC2"
    },
    {
      "bufferView": 0,
      "byteOffset": 1904196,
      "componentType": 5125,
      "count": 36312,
      "max": [
        9856
      ],
      "min": [
        0
      ],
      "type": "SCALAR"
    }
  ],
  "asset": {
    "extras": {
      "author": "Francesco Coldesina (https://sketchfab.com/topfrank2013)",
      "license": "CC-BY-4.0 (http://creativecommons.org/licenses/by/4.0/)",
      "source": "https://sketchfab.com/models/339ac3a31db046648463f5b5b852ad3e",
      "title": "Old Armchair Textures Comparison"
    },
    "generator": "Sketchfab-3.19.6",
    "version": "2.0"
  },
  "bufferViews": [
    {
      "buffer": 0,
      "byteLength": 2049444,
      "byteOffset": 0,
      "name": "floatBufferViews",
      "target": 34963
    },
    {
      "buffer": 0,
      "byteLength": 549688,
      "byteOffset": 2049444,
      "byteStride": 8,
      "name": "floatBufferViews",
      "target": 34962
    },
    {
      "buffer": 0,
      "byteLength": 3530232,
      "byteOffset": 2599132,
      "byteStride": 12,
      "name": "floatBufferViews",
      "target": 34962
    },
    {
      "buffer": 0,
      "byteLength": 2353488,
      "byteOffset": 6129364,
      "byteStride": 16,
      "name": "floatBufferViews",
      "target": 34962
    }
  ],
  "buffers": [
    {
      "byteLength": 8482852,
      "uri": "scene.bin"
    }
  ],
  "images": [
    {
      "uri": "textures/08___Default_normal.png"
    },
    {
      "uri": "textures/08___Default_metallicRoughness.png"
    },
    {
      "uri": "textures/08___Default_baseColor.png"
    },
    {
      "uri": "textures/wire_135110008_baseColor.jpeg"
    }
  ],
  "materials": [
    {
      "doubleSided": true,
      "emissiveFactor": [
        0,
        0,
        0
      ],
      "name": "08___Default",
      "normalTexture": {
        "index": 0,
        "scale": 1,
        "texCoord": 0
      },
      "pbrMetallicRoughness": {
        "baseColorFactor": [
          1,
          1,
          1,
          1
        ],
        "baseColorTexture": {
          "index": 2,
          "texCoord": 0
        },
        "metallicFactor": 0,
        "metallicRoughnessTexture": {
          "index": 1,
          "texCoord": 0
        },
        "roughnessFactor": 1
      }
    },
    {
      "doubleSided": true,
      "emissiveFactor": [
        0,
        0,
        0
      ],
      "name": "Metal_Dark_Gold",
      "pbrMetallicRoughness": {
        "baseColorFactor": [
          0.87843099999999996,
          0.60784300000000002,
          0.31764700000000001,
          1
        ],
        "metallicFactor": 0.87976371949999999,
        "roughnessFactor": 0.19950457320000003
      }
    },
    {
      "doubleSided": true,
      "emissiveFactor": [
        0,
        0,
        0
      ],
      "name": "wire_000000000",
      "pbrMetallicRoughness": {
        "baseColorFactor": [
          0,
          0,
          0,
          1
        ],
        "metallicFactor": 0,
        "roughnessFactor": 0.98333992069999998
      }
    },
    {
      "doubleSided": true,
      "emissiveFactor": [
        0,
        0,
        0
      ],
      "name": "wire_135110008",
      "pbrMetallicRoughness": {
        "baseColorFactor": [
          1,
          1,
          1,
          1
        ],
        "baseColorTexture": {
          "index": 3,
          "texCoord": 0
        },
        "metallicFactor": 0,
        "roughnessFactor": 0.91675550189999999
      }
    }
  ],
  "meshes": [
    {
      "primitives": [
        {
          "attributes": {
            "NORMAL": 1,
            "POSITION": 0,
            "TANGENT": 2,
            "TEXCOORD_0": 3
          },
          "indices": 4,
          "material": 0,
          "mode": 4
        }
      ]
    },
    {
      "primitives": [
        {
          "attributes": {
            "NORMAL": 6,
            "POSITION": 5,
            "TANGENT": 7
          },
          "indices": 8,
          "material": 1,
          "mode": 4
        }
      ]
    },
    {
      "primitives": [
        {
          "attributes": {
            "NORMAL": 10,
            "POSITION": 9,
            "TANGENT": 11
          },
          "indices": 12,
          "material": 1,
          "mode": 4
        }
      ]
    },
    {
      "primitives": [
        {
          "attributes": {
            "NORMAL": 14,
            "POSITION": 13,
            "TANGENT": 15
          },
          "indices": 16,
          "material": 2,
          "mode": 4
        }
      ]
    },
    {
      "primitives": [
        {
          "attributes": {
            "NORMAL": 18,
            "POSITION": 17,
            "TANGENT": 19,
            "TEXCOORD_0": 20
          },
          "indices": 21,
          "material": 3,
          "mode": 4
        }
      ]
    }
  ],
  "nodes": [
    {
      "children": [
        1
      ],
      "name": "RootNode (gltf orientation matrix)",
      "rotation": [
        -0.70710678118654746,
        -0,
        -0,
        0.70710678118654757
      ]
    },
    {
      "children": [
        2
      ],
      "name": "RootNode (model correction matrix)"
    },
    {
      "children": [
        3,
        4,
        5,
        6,
        7
      ],
      "name": "LR1.OBJ.cleaner.materialmerger.gles"
    },
    {
      "mesh": 0,
      "name": ""
    },
    {
      "mesh": 1,
      "name": ""
    },
    {
      "mesh": 2,
      "name": ""
    },
    {
      "mesh": 3,
      "name": ""
    },
    {
      "mesh": 4,
      "name": ""
    }
  ],
  "samplers": [
    {
      "magFilter": 9729,
      "minFilter": 9987,
      "wrapS": 10497,
      "wrapT": 10497
    }
  ],
  "scene": 0,
  "scenes": [
    {
      "name": "OSG_Scene",
      "nodes": [
        0
      ]
    }
  ],
  "textures": [
    {
      "sampler": 0,
      "source": 0
    },
    {
      "sampler": 0,
      "source": 1
    },
    {
      "sampler": 0,
      "source": 2
    },
    {
      "sampler": 0,
      "source": 3
    }
  ]
}

