<svg xmlns="http://www.w3.org/2000/svg" xmlns:xlink="http://www.w3.org/1999/xlink" viewBox="0 0 544.61 155.1"><defs><style>.cls-1{fill:none;}.cls-2{clip-path:url(#clip-path);}.cls-3{fill:#231f20;}</style><clipPath id="clip-path" transform="translate(-0.36 -0.54)"><rect class="cls-1" width="545.21" height="156.19"/></clipPath></defs><title>Asset 1</title><g id="Layer_2" data-name="Layer 2"><g id="Layer_1-2" data-name="Layer 1"><g class="cls-2"><path class="cls-3" d="M484,22.12l-2.23-.36-.89-.12c-1.26-.18-2.54-.33-3.83-.45-.88-.08-1.76-.14-2.63-.19-1.56-.1-3.1-.14-4.58-.14l-1.73,0c-1.25,0-2.46.08-3.66.16-.68,0-1.35.1-2,.16-1,.08-1.95.19-2.91.31l-.79.11-.89.13-1.09.17-1.42.25-1.92.38a70,70,0,0,0-10.87,3.23c-1.72.67-3.38,1.4-5,2.17-1.31.64-2.57,1.3-3.78,2s-2.3,1.36-3.39,2.09l-1.83,1.26c-.51.38-1,.75-1.51,1.13-1.05.8-2.06,1.62-3,2.46s-1.74,1.57-2.54,2.37-1.38,1.39-2,2.12-1.32,1.48-1.95,2.26-1.36,1.71-2,2.61c-.48.66-.94,1.34-1.39,2-.31.47-.61.94-.9,1.42a55.66,55.66,0,0,0-4.46,9,56.77,56.77,0,0,0-3.27,12.89c-.19,1.44-.34,2.9-.43,4.4-.06,1.15-.11,2.31-.11,3.49,0,.89,0,1.76.06,2.62s.13,1.79.24,2.68l.06.62c.14,1,.3,2.07.5,3.09.07.4.15.8.24,1.19.18.85.38,1.68.6,2.51.29,1.07.59,2.11.94,3.14.42,1.26.87,2.49,1.38,3.68a56.93,56.93,0,0,0,2.6,5.44c.55,1,1.12,2,1.71,2.92.47.76.95,1.48,1.44,2.19.64.93,1.31,1.83,2,2.68s1.42,1.75,2.12,2.55c.88,1,1.76,1.93,2.61,2.78l.47.46c.71.68,1.48,1.42,2.36,2.17.6.51,1.22,1.05,1.9,1.58s1.28,1,2,1.51,1.71,1.2,2.64,1.8,2,1.26,3.12,1.87a60.74,60.74,0,0,0,7.22,3.46c1,.39,2,.77,3.07,1.13s2.12.69,3.23,1c1.9.55,3.89,1,6,1.44,1.68.32,3.44.6,5.25.82s3.67.38,5.6.47c.94,0,1.9.09,2.87.11h1.34c3.46,0,6.67-.13,9.64-.37l.58-.06c1.19-.1,2.32-.23,3.44-.36,1.69-.21,3.31-.47,4.85-.74,1-.17,1.91-.36,2.83-.56,1.42-.3,2.77-.63,4.06-1,.95-.25,1.87-.51,2.75-.78,1-.32,2.08-.66,3-1l.93-.33c.47-.17,1.11-.39,1.86-.69,1-.38,2.19-.85,3.55-1.44.81-.35,1.7-.74,2.6-1.15s1.65-.78,2.5-1.19l1.08-.53V104.1l-.75.46-1.45.87c-1.45.88-2.84,1.7-4.24,2.47s-3,1.6-4.52,2.3c-2.62,1.23-5.13,2.27-7.56,3.14a75,75,0,0,1-12.57,3.36l-1.31.22c-1,.16-2,.28-3,.39-1.47.16-2.84.24-4.07.3-.81,0-1.56,0-2.25,0-1.5,0-3,0-4.61-.15-1.84-.13-3.72-.34-5.61-.65a52.8,52.8,0,0,1-9.14-2.38l-1.33-.51-.86-.36c-.49-.21-1-.42-1.46-.65-1-.49-2.06-1-3.07-1.58-.49-.28-1-.58-1.49-.9s-1-.64-1.49-1-1.23-.87-1.83-1.34-1.16-.94-1.66-1.37l-.7-.63-.34-.32-.21-.19-.26-.25c-.94-.94-1.82-1.9-2.61-2.85-.45-.53-.86-1.07-1.26-1.62s-.75-1-1.09-1.56-.63-1-.92-1.5c-.44-.74-.84-1.49-1.2-2.23s-.6-1.27-.87-1.89c-.45-1.06-.84-2.14-1.17-3.15-.25-.8-.47-1.59-.66-2.35a39.87,39.87,0,0,1-1-6c-.06-.66-.11-1.27-.13-1.83,0-.85-.06-1.58-.06-2.17,0-.39,0-.83,0-1.34a39.06,39.06,0,0,1,.4-4.49c.15-1.06.37-2.19.65-3.38.19-.79.41-1.59.66-2.43s.51-1.51.8-2.28c.2-.52.42-1,.65-1.57.31-.72.66-1.43,1-2.16.28-.55.58-1.09.9-1.64A34.71,34.71,0,0,1,433,55.43c.32-.43.65-.86,1-1.28s.92-1.1,1.41-1.62c.25-.27.5-.55.76-.81a43.36,43.36,0,0,1,12.75-8.83c.7-.32,1.42-.61,2.13-.89s1.42-.54,2.16-.79,1.57-.5,2.35-.72,1.5-.39,2.23-.56,1.5-.32,2.24-.46,1.63-.27,2.44-.38,1.63-.19,2.43-.26q2.32-.21,4.53-.21h1.47c1.1,0,2.17.06,3.21.13l2.14.16c1.33.13,2.62.29,3.84.48s2.14.35,3.12.55c1.52.3,2.91.63,4.15,1,.81.21,1.56.43,2.24.63,1,.31,1.89.58,2.58.82,1.17.4,1.82.64,1.82.64,1,.37,2.05.78,3.05,1.18,1.34.54,2.63,1.12,3.86,1.68,1,.46,2,.94,2.91,1.38.76.37,1.46.75,2.12,1.09,1.16.59,2.14,1.14,2.94,1.57l2.16,1.18V30.3s-1.3-.53-3.54-1.37c-1-.38-2.16-.82-3.48-1.29l-2.35-.82-2-.69-2.46-.78-1.88-.55-.56-.16c-.62-.18-1.24-.36-1.88-.53l-2.29-.59-1.5-.35c-.82-.19-1.65-.38-2.5-.55s-1.72-.34-2.59-.5ZM380.16.54H545v155.1H380.16V.54Z" transform="translate(-0.36 -0.54)"/><path class="cls-3" d="M253.49,86.07v30.48h19.79l1.05,0c.66,0,1.61-.06,2.75-.16a34.11,34.11,0,0,0,7.72-1.52,17.39,17.39,0,0,0,6.75-3.94,12.94,12.94,0,0,0,1.77-2.2,13.41,13.41,0,0,0,2-6.34c0-.61,0-1,0-1s0-.27,0-.75a14.21,14.21,0,0,0-.4-3A12.28,12.28,0,0,0,292.68,93c-.24-.29-.49-.58-.77-.86a16.56,16.56,0,0,0-1.77-1.54,18.55,18.55,0,0,0-3.67-2.06,28,28,0,0,0-6-1.76c-1.12-.2-2.31-.38-3.52-.49-.75-.07-1.5-.13-2.28-.17s-1.39-.07-2.09-.07Z" transform="translate(-0.36 -0.54)"/><path class="cls-3" d="M253.49,39.73v28.9h9.59s.64,0,1.48,0c.66,0,1.45-.06,2.16-.1a38.77,38.77,0,0,0,7.42-1.18c.53-.15,1.07-.32,1.59-.51a15.73,15.73,0,0,0,5.79-3.44,11.82,11.82,0,0,0,2.66-4,15.23,15.23,0,0,0,1-4.36c.09-1,.08-1.63.08-1.63a10.56,10.56,0,0,0,0-1.23,13.28,13.28,0,0,0-1.32-5.28,10.57,10.57,0,0,0-2-2.73,12.74,12.74,0,0,0-3.79-2.5,25.64,25.64,0,0,0-8.39-1.84c-1.13-.07-2.16-.09-3-.09Z" transform="translate(-0.36 -0.54)"/><path class="cls-3" d="M233.49,22.29V134h42.05s20.5.57,31.82-10.75c9.22-9.22,8.56-19.88,8.56-19.88a27.85,27.85,0,0,0-7.87-19.67,36.65,36.65,0,0,0-16.55-9.21,29.76,29.76,0,0,0,7.41-5.18c1.51-1.51,6.87-6.36,6.87-18.13a26,26,0,0,0-7.89-18.67s-8.64-10.21-28.15-10.21ZM190.26.54h164.8v155.1H190.26V.54Z" transform="translate(-0.36 -0.54)"/><path class="cls-3" d="M63.59,86.07v30.48H83.38l1,0c.67,0,1.62-.06,2.76-.16a34.32,34.32,0,0,0,7.72-1.52,17.39,17.39,0,0,0,6.75-3.94,12.94,12.94,0,0,0,1.77-2.2,13.41,13.41,0,0,0,2-6.34c0-.61,0-1,0-1s0-.27,0-.75a14.21,14.21,0,0,0-.4-3A12.28,12.28,0,0,0,102.78,93c-.24-.29-.49-.58-.77-.86a16.56,16.56,0,0,0-1.77-1.54,18.55,18.55,0,0,0-3.67-2.06,28,28,0,0,0-6-1.76c-1.11-.2-2.3-.38-3.51-.49-.75-.07-1.5-.13-2.28-.17s-1.39-.07-2.09-.07Z" transform="translate(-0.36 -0.54)"/><path class="cls-3" d="M63.59,39.73v28.9h9.59s.63,0,1.48,0c.66,0,1.45-.06,2.15-.1a38.74,38.74,0,0,0,7.43-1.18c.53-.15,1.07-.32,1.59-.51a15.73,15.73,0,0,0,5.79-3.44,11.82,11.82,0,0,0,2.66-4,15.23,15.23,0,0,0,1-4.36c.09-1,.08-1.63.08-1.63s0-.48,0-1.23A13.28,13.28,0,0,0,94,46.89a10.57,10.57,0,0,0-2-2.73,12.74,12.74,0,0,0-3.79-2.5,25.64,25.64,0,0,0-8.39-1.84c-1.13-.07-2.16-.09-3-.09Z" transform="translate(-0.36 -0.54)"/><path class="cls-3" d="M43.59,22.29V134h42s20.51.57,31.83-10.75c9.22-9.22,8.55-19.88,8.55-19.88a27.82,27.82,0,0,0-7.86-19.67,36.66,36.66,0,0,0-16.56-9.21A29.71,29.71,0,0,0,109,69.3c1.51-1.51,6.87-6.36,6.87-18.13A26,26,0,0,0,108,32.5S99.35,22.29,79.84,22.29ZM.36.54h164.8v155.1H.36V.54Z" transform="translate(-0.36 -0.54)"/></g></g></g></svg>