<svg xmlns="http://www.w3.org/2000/svg" viewBox="0 0 34.25 34.25"><defs><style>.cls-1{fill:#8ec897;}.cls-2{fill:#fff;}</style></defs><title>Asset 7</title><g id="Layer_2" data-name="Layer 2"><g id="Capa_1" data-name="Capa 1"><rect class="cls-1" x="0.12" y="0.12" width="34.02" height="34.02" transform="translate(-0.12 34.13) rotate(-89.6)"/><path class="cls-2" d="M22.45,11.86a1.52,1.52,0,0,1,.54.08l-5.45,4.77a.63.63,0,0,1-.83,0l-5.45-4.77a2.26,2.26,0,0,1,.54-.08Zm1.86,8.66a1.85,1.85,0,0,1-1.86,1.86H11.8a1.85,1.85,0,0,1-1.86-1.86V13.72a2,2,0,0,1,.31-1l5.63,5a1.86,1.86,0,0,0,1.24.48,1.79,1.79,0,0,0,1.22-.45l5.63-5a1.9,1.9,0,0,1,.31,1v6.79ZM11.8,23.62H22.45a3.09,3.09,0,0,0,3.09-3.09V13.72a3.09,3.09,0,0,0-3.09-3.09H11.8a3.09,3.09,0,0,0-3.09,3.09v6.81A3.09,3.09,0,0,0,11.8,23.62Z"/></g></g></svg>