<?xml version="1.0" encoding="UTF-8" standalone="no"?>
<svg width="10px" height="20px" viewBox="0 0 10 20" version="1.1" xmlns="http://www.w3.org/2000/svg" xmlns:xlink="http://www.w3.org/1999/xlink">
    <!-- Generator: Sketch 50.2 (55047) - http://www.bohemiancoding.com/sketch -->
    <title>fb-icon-circle-777777_hs2as9</title>
    <desc>Created with Sketch.</desc>
    <defs>
        <path d="M15,30 C23.2842857,30 30,23.2842857 30,15 C30,6.71785714 23.2842857,0 15,0 C6.71571429,0 0,6.71785714 0,15 C0,23.2842857 6.71571429,30 15,30" id="path-1"></path>
    </defs>
    <g id="Page-1" stroke="none" stroke-width="1" fill="none" fill-rule="evenodd">
        <g id="fb-icon-circle-777777_hs2as9" transform="translate(-10.000000, -5.000000)">
            <g id="Mask" fill="#777777" fill-rule="nonzero" opacity="0">
                <path d="M15,30 C23.2842857,30 30,23.2842857 30,15 C30,6.71785714 23.2842857,0 15,0 C6.71571429,0 0,6.71785714 0,15 C0,23.2842857 6.71571429,30 15,30" id="path-1"></path>
            </g>
            <g id="Shape-Clipped">
                <mask id="mask-2" fill="white">
                    <use xlink:href="#path-1"></use>
                </mask>
                <g id="path-1"></g>
                <path d="M12.905303,24.3939394 L12.905303,15.719697 L10,15.719697 L10,12.2727273 L12.905303,12.2727273 L12.905303,9.55681818 C12.905303,6.60606061 14.7083333,5 17.3409091,5 C18.6022727,5 19.6856061,5.09469697 20,5.13636364 L20,8.21969697 L18.1742424,8.21969697 C16.7424242,8.21969697 16.4659091,8.90151515 16.4659091,9.89772727 L16.4659091,12.2727273 L19.6969697,12.2727273 L19.2537879,15.719697 L16.4659091,15.719697 L16.4659091,24.3939394" id="Shape" fill="#FFFFFF" fill-rule="nonzero" mask="url(#mask-2)"></path>
            </g>
        </g>
    </g>
</svg>