<?xml version="1.0" encoding="UTF-8" standalone="no"?>
<svg width="21px" height="21px" viewBox="0 0 21 21" version="1.1" xmlns="http://www.w3.org/2000/svg" xmlns:xlink="http://www.w3.org/1999/xlink">
    <!-- Generator: Sketch 50.2 (55047) - http://www.bohemiancoding.com/sketch -->
    <title>insta-icon-circle-777777_tciktn</title>
    <desc>Created with Sketch.</desc>
    <defs>
        <path d="M15,30 C23.2842857,30 30,23.2842857 30,15 C30,6.71785714 23.2842857,0 15,0 C6.71571429,0 0,6.71785714 0,15 C0,23.2842857 6.71571429,30 15,30" id="path-1"></path>
    </defs>
    <g id="Page-1" stroke="none" stroke-width="1" fill="none" fill-rule="evenodd">
        <g id="insta-icon-circle-777777_tciktn" transform="translate(-4.000000, -4.000000)">
            <g id="Mask" fill="#777777" fill-rule="nonzero" opacity="0">
                <path d="M15,30 C23.2842857,30 30,23.2842857 30,15 C30,6.71785714 23.2842857,0 15,0 C6.71571429,0 0,6.71785714 0,15 C0,23.2842857 6.71571429,30 15,30" id="path-1"></path>
            </g>
            <g id="Shape-Clipped">
                <mask id="mask-2" fill="white">
                    <use xlink:href="#path-1"></use>
                </mask>
                <g id="path-1"></g>
                <path d="M14.9272309,9.69616564 C12.0895287,9.69616564 9.80062744,11.9850669 9.80062744,14.8227691 C9.80062744,17.6604713 12.0895287,19.9493726 14.9272309,19.9493726 C17.7649331,19.9493726 20.0538344,17.6604713 20.0538344,14.8227691 C20.0538344,11.9850669 17.7649331,9.69616564 14.9272309,9.69616564 Z M14.9272309,18.1557306 C13.0934328,18.1557306 11.5942694,16.661029 11.5942694,14.8227691 C11.5942694,12.9845092 13.088971,11.4898076 14.9272309,11.4898076 C16.7654908,11.4898076 18.2601924,12.9845092 18.2601924,14.8227691 C18.2601924,16.661029 16.761029,18.1557306 14.9272309,18.1557306 Z M21.4593001,9.48646124 C21.4593001,10.1512688 20.9238846,10.6822225 20.2635388,10.6822225 C19.5987312,10.6822225 19.0677775,10.146807 19.0677775,9.48646124 C19.0677775,8.82611545 19.603193,8.29069994 20.2635388,8.29069994 C20.9238846,8.29069994 21.4593001,8.82611545 21.4593001,9.48646124 Z M24.8547267,10.7000697 C24.7788762,9.098285 24.4130089,7.67943391 23.2395566,6.51044339 C22.0705661,5.34145287 20.651715,4.97558561 19.0499303,4.89527328 C17.3990658,4.80157557 12.4509342,4.80157557 10.8000697,4.89527328 C9.20274679,4.97112381 7.78389571,5.33699108 6.61044339,6.5059816 C5.43699108,7.67497211 5.07558561,9.0938232 4.99527328,10.6956079 C4.90157557,12.3464724 4.90157557,17.294604 4.99527328,18.9454685 C5.07112381,20.5472532 5.43699108,21.9661043 6.61044339,23.1350948 C7.78389571,24.3040853 9.198285,24.6699526 10.8000697,24.7502649 C12.4509342,24.8439626 17.3990658,24.8439626 19.0499303,24.7502649 C20.651715,24.6744144 22.0705661,24.3085471 23.2395566,23.1350948 C24.4085471,21.9661043 24.7744144,20.5472532 24.8547267,18.9454685 C24.9484244,17.294604 24.9484244,12.3509342 24.8547267,10.7000697 Z M22.7219883,20.7168015 C22.3739682,21.5913134 21.700237,22.2650446 20.8212632,22.6175265 C19.5050335,23.1395566 16.3817764,23.0190881 14.9272309,23.0190881 C13.4726854,23.0190881 10.3449665,23.1350948 9.03319855,22.6175265 C8.15868656,22.2695064 7.48495538,21.5957752 7.13247351,20.7168015 C6.61044339,19.4005717 6.73091188,16.2773146 6.73091188,14.8227691 C6.73091188,13.3682236 6.61490519,10.2405047 7.13247351,8.92873675 C7.48049359,8.05422476 8.15422476,7.38049359 9.03319855,7.02801171 C10.3494283,6.5059816 13.4726854,6.62645008 14.9272309,6.62645008 C16.3817764,6.62645008 19.5094953,6.51044339 20.8212632,7.02801171 C21.6957752,7.37603179 22.3695064,8.04976297 22.7219883,8.92873675 C23.2440184,10.2449665 23.1235499,13.3682236 23.1235499,14.8227691 C23.1235499,16.2773146 23.2440184,19.4050335 22.7219883,20.7168015 Z" id="Shape" fill="#FFFFFF" fill-rule="nonzero" mask="url(#mask-2)"></path>
            </g>
        </g>
    </g>
</svg>