<?xml version="1.0" encoding="UTF-8" standalone="no"?>
<svg width="17px" height="17px" viewBox="0 0 17 17" version="1.1" xmlns="http://www.w3.org/2000/svg" xmlns:xlink="http://www.w3.org/1999/xlink">
    <!-- Generator: Sketch 50.2 (55047) - http://www.bohemiancoding.com/sketch -->
    <title>linkedin-icon-circle-777777_dz2eja</title>
    <desc>Created with Sketch.</desc>
    <defs>
        <path d="M15,30 C23.2842857,30 30,23.2842857 30,15 C30,6.71785714 23.2842857,0 15,0 C6.71571429,0 0,6.71785714 0,15 C0,23.2842857 6.71571429,30 15,30" id="path-1"></path>
    </defs>
    <g id="Page-1" stroke="none" stroke-width="1" fill="none" fill-rule="evenodd">
        <g id="linkedin-icon-circle-777777_dz2eja" transform="translate(-7.000000, -5.000000)">
            <g id="Mask" fill="#777777" fill-opacity="0" fill-rule="nonzero">
                <path d="M15,30 C23.2842857,30 30,23.2842857 30,15 C30,6.71785714 23.2842857,0 15,0 C6.71571429,0 0,6.71785714 0,15 C0,23.2842857 6.71571429,30 15,30" id="path-1"></path>
            </g>
            <g id="Shape-Clipped">
                <mask id="mask-2" fill="white">
                    <use xlink:href="#path-1"></use>
                </mask>
                <g id="path-1"></g>
                <path d="M10.8051774,22 L7.28074091,22 L7.28074091,10.6502232 L10.8051774,10.6502232 L10.8051774,22 Z M9.04106226,9.10200893 C7.91430484,9.10200893 7,8.16852679 7,7.04151786 C7,5.91450893 7.91430484,5 9.04106226,5 C10.1678197,5 11.0821245,5.91450893 11.0821245,7.04151786 C11.0821245,8.16852679 10.1678197,9.10200893 9.04106226,9.10200893 Z M23.9962062,22 L20.4793573,22 L20.4793573,16.475 C20.4793573,15.1582589 20.4528007,13.4696429 18.6469538,13.4696429 C16.8145503,13.4696429 16.5338094,14.9002232 16.5338094,16.3801339 L16.5338094,22 L13.0131667,22 L13.0131667,10.6502232 L16.393439,10.6502232 L16.393439,12.1984375 L16.4427583,12.1984375 C16.913189,11.3066964 18.0627092,10.365625 19.777505,10.365625 C23.3436733,10.365625 24,12.7145089 24,15.7654018 L24,22 L23.9962062,22 Z" id="Shape" fill="#FFFFFF" fill-rule="nonzero" mask="url(#mask-2)"></path>
            </g>
        </g>
    </g>
</svg>