<?xml version="1.0" encoding="UTF-8" standalone="no"?>
<svg width="20px" height="17px" viewBox="0 0 20 17" version="1.1" xmlns="http://www.w3.org/2000/svg" xmlns:xlink="http://www.w3.org/1999/xlink">
    <!-- Generator: Sketch 50.2 (55047) - http://www.bohemiancoding.com/sketch -->
    <title>tw-icon-circle-777777_fwaqmc</title>
    <desc>Created with Sketch.</desc>
    <defs>
        <path d="M15,30 C23.2842857,30 30,23.2842857 30,15 C30,6.71785714 23.2842857,0 15,0 C6.71571429,0 0,6.71785714 0,15 C0,23.2842857 6.71571429,30 15,30" id="path-1"></path>
    </defs>
    <g id="Page-1" stroke="none" stroke-width="1" fill="none" fill-rule="evenodd">
        <g id="tw-icon-circle-777777_fwaqmc" transform="translate(-6.000000, -7.000000)">
            <g id="Mask" fill="#777777" fill-rule="nonzero" opacity="0">
                <path d="M15,30 C23.2842857,30 30,23.2842857 30,15 C30,6.71785714 23.2842857,0 15,0 C6.71571429,0 0,6.71785714 0,15 C0,23.2842857 6.71571429,30 15,30" id="path-1"></path>
            </g>
            <g id="Shape-Clipped">
                <mask id="mask-2" fill="white">
                    <use xlink:href="#path-1"></use>
                </mask>
                <g id="path-1"></g>
                <path d="M23.3920062,11.551436 C23.4043109,11.7236258 23.4043109,11.8958535 23.4043109,12.0680433 C23.4043109,17.3200604 19.4068792,23.3716169 12.1007373,23.3716169 C9.84985121,23.3716169 7.75888811,22.7196959 6,21.5881573 C6.31980816,21.6250335 6.62727379,21.6373381 6.95938663,21.6373381 C8.81663649,21.6373381 10.5263437,21.0100644 11.8916334,19.9399734 C10.14505,19.9030594 8.6813607,18.7591782 8.17705802,17.1847846 C8.42307595,17.2216608 8.66905602,17.2462702 8.92737863,17.2462702 C9.28406298,17.2462702 9.64078519,17.1970515 9.97286018,17.1109944 C8.15248651,16.7419675 6.78715894,15.1430024 6.78715894,13.2119245 L6.78715894,13.1627436 C7.31603312,13.4579424 7.93107795,13.6424369 8.58292324,13.6670084 C7.51283232,12.9536019 6.8117683,11.7359305 6.8117683,10.3583361 C6.8117683,9.62035801 7.00852964,8.94386549 7.35294717,8.35346789 C9.30863448,10.7642392 12.2483178,12.3385949 15.5446476,12.5108226 C15.483162,12.2156238 15.446248,11.9081582 15.446248,11.6006547 C15.446248,9.41125412 17.2174408,7.62779451 19.4191082,7.62779451 C20.5629893,7.62779451 21.5961662,8.10748782 22.3218774,8.88237994 C23.2197407,8.7101901 24.0807277,8.37807726 24.843353,7.92299331 C24.5481163,8.84550375 23.9208425,9.62039587 23.0967696,10.112356 C23.896271,10.0262989 24.6711631,9.80485252 25.3845319,9.4973869 C24.8434287,10.2845458 24.1668983,10.9856099 23.3920062,11.551436 Z" id="Shape" fill="#FFFFFF" fill-rule="nonzero" mask="url(#mask-2)"></path>
            </g>
        </g>
    </g>
</svg>